<mxfile host="app.diagrams.net" modified="2023-06-03T13:14:06.796Z" agent="Mozilla/5.0 (Windows NT 10.0; Win64; x64) AppleWebKit/537.36 (KHTML, like Gecko) Chrome/113.0.0.0 Safari/537.36 Edg/113.0.1774.35" etag="hiQcFd4UQFKZDzKCubo4" version="21.2.3" type="github">
  <diagram name="第 1 页" id="lxEXxPfOvIrX5aCoGtYV">
    <mxGraphModel dx="1235" dy="646" grid="1" gridSize="10" guides="1" tooltips="1" connect="1" arrows="1" fold="1" page="1" pageScale="1" pageWidth="2339" pageHeight="3300" math="0" shadow="0">
      <root>
        <mxCell id="0" />
        <mxCell id="1" parent="0" />
        <mxCell id="zVydbtwMKr3rRIUxapGz-3" value="" style="edgeStyle=orthogonalEdgeStyle;rounded=0;orthogonalLoop=1;jettySize=auto;html=1;fontSize=17;" edge="1" parent="1" source="zVydbtwMKr3rRIUxapGz-1" target="zVydbtwMKr3rRIUxapGz-2">
          <mxGeometry relative="1" as="geometry" />
        </mxCell>
        <mxCell id="zVydbtwMKr3rRIUxapGz-1" value="开始" style="rounded=0;whiteSpace=wrap;html=1;fontSize=17;" vertex="1" parent="1">
          <mxGeometry x="480" y="190" width="120" height="60" as="geometry" />
        </mxCell>
        <mxCell id="zVydbtwMKr3rRIUxapGz-7" style="edgeStyle=orthogonalEdgeStyle;rounded=0;orthogonalLoop=1;jettySize=auto;html=1;exitX=0;exitY=1;exitDx=0;exitDy=0;fontSize=17;" edge="1" parent="1" source="zVydbtwMKr3rRIUxapGz-2" target="zVydbtwMKr3rRIUxapGz-4">
          <mxGeometry relative="1" as="geometry" />
        </mxCell>
        <mxCell id="zVydbtwMKr3rRIUxapGz-8" style="edgeStyle=orthogonalEdgeStyle;rounded=0;orthogonalLoop=1;jettySize=auto;html=1;exitX=1;exitY=1;exitDx=0;exitDy=0;entryX=0.5;entryY=0;entryDx=0;entryDy=0;fontSize=17;" edge="1" parent="1" source="zVydbtwMKr3rRIUxapGz-2" target="zVydbtwMKr3rRIUxapGz-6">
          <mxGeometry relative="1" as="geometry" />
        </mxCell>
        <mxCell id="zVydbtwMKr3rRIUxapGz-11" style="edgeStyle=orthogonalEdgeStyle;rounded=0;orthogonalLoop=1;jettySize=auto;html=1;exitX=0.5;exitY=1;exitDx=0;exitDy=0;entryX=0.5;entryY=0;entryDx=0;entryDy=0;fontSize=17;" edge="1" parent="1" source="zVydbtwMKr3rRIUxapGz-2" target="zVydbtwMKr3rRIUxapGz-5">
          <mxGeometry relative="1" as="geometry" />
        </mxCell>
        <mxCell id="zVydbtwMKr3rRIUxapGz-2" value="前期理论学习" style="ellipse;whiteSpace=wrap;html=1;fontSize=17;" vertex="1" parent="1">
          <mxGeometry x="480" y="290" width="120" height="80" as="geometry" />
        </mxCell>
        <mxCell id="zVydbtwMKr3rRIUxapGz-4" value="熟悉软件操作" style="rounded=0;whiteSpace=wrap;html=1;fontSize=17;" vertex="1" parent="1">
          <mxGeometry x="345" y="390" width="120" height="60" as="geometry" />
        </mxCell>
        <mxCell id="zVydbtwMKr3rRIUxapGz-5" value="表面等离激元理论" style="rounded=0;whiteSpace=wrap;html=1;fontSize=17;" vertex="1" parent="1">
          <mxGeometry x="480" y="390" width="120" height="60" as="geometry" />
        </mxCell>
        <mxCell id="zVydbtwMKr3rRIUxapGz-6" value="MXene材料物理性质" style="rounded=0;whiteSpace=wrap;html=1;fontSize=17;" vertex="1" parent="1">
          <mxGeometry x="615" y="390" width="120" height="60" as="geometry" />
        </mxCell>
        <mxCell id="zVydbtwMKr3rRIUxapGz-49" style="edgeStyle=orthogonalEdgeStyle;rounded=0;orthogonalLoop=1;jettySize=auto;html=1;exitX=0.5;exitY=1;exitDx=0;exitDy=0;entryX=0.5;entryY=0;entryDx=0;entryDy=0;fontSize=17;" edge="1" parent="1" source="zVydbtwMKr3rRIUxapGz-18" target="zVydbtwMKr3rRIUxapGz-19">
          <mxGeometry relative="1" as="geometry" />
        </mxCell>
        <mxCell id="zVydbtwMKr3rRIUxapGz-18" value="熟悉软件操作" style="rounded=0;whiteSpace=wrap;html=1;fontSize=17;" vertex="1" parent="1">
          <mxGeometry x="345" y="390" width="120" height="60" as="geometry" />
        </mxCell>
        <mxCell id="zVydbtwMKr3rRIUxapGz-50" style="edgeStyle=orthogonalEdgeStyle;rounded=0;orthogonalLoop=1;jettySize=auto;html=1;exitX=0.5;exitY=1;exitDx=0;exitDy=0;entryX=0.5;entryY=0;entryDx=0;entryDy=0;fontSize=17;" edge="1" parent="1" source="zVydbtwMKr3rRIUxapGz-19" target="zVydbtwMKr3rRIUxapGz-20">
          <mxGeometry relative="1" as="geometry" />
        </mxCell>
        <mxCell id="zVydbtwMKr3rRIUxapGz-19" value="建模" style="rounded=0;whiteSpace=wrap;html=1;fontSize=17;" vertex="1" parent="1">
          <mxGeometry x="372.5" y="500" width="65" height="30" as="geometry" />
        </mxCell>
        <mxCell id="zVydbtwMKr3rRIUxapGz-51" style="edgeStyle=orthogonalEdgeStyle;rounded=0;orthogonalLoop=1;jettySize=auto;html=1;exitX=0.5;exitY=1;exitDx=0;exitDy=0;entryX=0.5;entryY=0;entryDx=0;entryDy=0;fontSize=17;" edge="1" parent="1" source="zVydbtwMKr3rRIUxapGz-20" target="zVydbtwMKr3rRIUxapGz-21">
          <mxGeometry relative="1" as="geometry" />
        </mxCell>
        <mxCell id="zVydbtwMKr3rRIUxapGz-20" value="计算" style="rounded=0;whiteSpace=wrap;html=1;fontSize=17;" vertex="1" parent="1">
          <mxGeometry x="372.5" y="563" width="65" height="30" as="geometry" />
        </mxCell>
        <mxCell id="zVydbtwMKr3rRIUxapGz-52" style="edgeStyle=orthogonalEdgeStyle;rounded=0;orthogonalLoop=1;jettySize=auto;html=1;exitX=0.5;exitY=1;exitDx=0;exitDy=0;entryX=0.5;entryY=0;entryDx=0;entryDy=0;fontSize=17;" edge="1" parent="1" source="zVydbtwMKr3rRIUxapGz-21" target="zVydbtwMKr3rRIUxapGz-22">
          <mxGeometry relative="1" as="geometry" />
        </mxCell>
        <mxCell id="zVydbtwMKr3rRIUxapGz-21" value="绘制图表" style="rounded=0;whiteSpace=wrap;html=1;fontSize=17;" vertex="1" parent="1">
          <mxGeometry x="361.25" y="627" width="87.5" height="30" as="geometry" />
        </mxCell>
        <mxCell id="zVydbtwMKr3rRIUxapGz-22" value="分析绘图" style="rounded=0;whiteSpace=wrap;html=1;fontSize=17;" vertex="1" parent="1">
          <mxGeometry x="361.25" y="690" width="87.5" height="30" as="geometry" />
        </mxCell>
        <mxCell id="zVydbtwMKr3rRIUxapGz-45" style="edgeStyle=orthogonalEdgeStyle;rounded=0;orthogonalLoop=1;jettySize=auto;html=1;exitX=1;exitY=0.5;exitDx=0;exitDy=0;entryX=0.5;entryY=1;entryDx=0;entryDy=0;fontSize=17;" edge="1" parent="1" source="zVydbtwMKr3rRIUxapGz-24" target="zVydbtwMKr3rRIUxapGz-43">
          <mxGeometry relative="1" as="geometry" />
        </mxCell>
        <mxCell id="zVydbtwMKr3rRIUxapGz-46" style="edgeStyle=orthogonalEdgeStyle;rounded=0;orthogonalLoop=1;jettySize=auto;html=1;exitX=0.5;exitY=1;exitDx=0;exitDy=0;entryX=0.5;entryY=0;entryDx=0;entryDy=0;fontSize=17;" edge="1" parent="1" source="zVydbtwMKr3rRIUxapGz-24" target="zVydbtwMKr3rRIUxapGz-26">
          <mxGeometry relative="1" as="geometry" />
        </mxCell>
        <mxCell id="zVydbtwMKr3rRIUxapGz-24" value="保存数据" style="rounded=0;whiteSpace=wrap;html=1;fontSize=17;" vertex="1" parent="1">
          <mxGeometry x="351.25" y="930" width="107.5" height="30" as="geometry" />
        </mxCell>
        <mxCell id="zVydbtwMKr3rRIUxapGz-25" value="绘图是否合理" style="rhombus;whiteSpace=wrap;html=1;fontSize=17;" vertex="1" parent="1">
          <mxGeometry x="345" y="760" width="120" height="120" as="geometry" />
        </mxCell>
        <mxCell id="zVydbtwMKr3rRIUxapGz-47" style="edgeStyle=orthogonalEdgeStyle;rounded=0;orthogonalLoop=1;jettySize=auto;html=1;exitX=0.5;exitY=1;exitDx=0;exitDy=0;entryX=0.5;entryY=0;entryDx=0;entryDy=0;fontSize=17;" edge="1" parent="1" source="zVydbtwMKr3rRIUxapGz-26" target="zVydbtwMKr3rRIUxapGz-27">
          <mxGeometry relative="1" as="geometry" />
        </mxCell>
        <mxCell id="zVydbtwMKr3rRIUxapGz-26" value="总结仿真规律" style="rounded=0;whiteSpace=wrap;html=1;fontSize=17;" vertex="1" parent="1">
          <mxGeometry x="340" y="993" width="130" height="30" as="geometry" />
        </mxCell>
        <mxCell id="zVydbtwMKr3rRIUxapGz-48" style="edgeStyle=orthogonalEdgeStyle;rounded=0;orthogonalLoop=1;jettySize=auto;html=1;exitX=0.5;exitY=1;exitDx=0;exitDy=0;entryX=0.5;entryY=0;entryDx=0;entryDy=0;fontSize=17;" edge="1" parent="1" source="zVydbtwMKr3rRIUxapGz-27" target="zVydbtwMKr3rRIUxapGz-32">
          <mxGeometry relative="1" as="geometry" />
        </mxCell>
        <mxCell id="zVydbtwMKr3rRIUxapGz-27" value="验证仿真模型的正确性和可靠性" style="rounded=0;whiteSpace=wrap;html=1;fontSize=17;" vertex="1" parent="1">
          <mxGeometry x="280" y="1060" width="250" height="30" as="geometry" />
        </mxCell>
        <mxCell id="zVydbtwMKr3rRIUxapGz-32" value="结束" style="rounded=0;whiteSpace=wrap;html=1;fontSize=17;" vertex="1" parent="1">
          <mxGeometry x="372.5" y="1120" width="65" height="30" as="geometry" />
        </mxCell>
        <mxCell id="zVydbtwMKr3rRIUxapGz-40" style="edgeStyle=orthogonalEdgeStyle;rounded=0;orthogonalLoop=1;jettySize=auto;html=1;exitX=0.5;exitY=0;exitDx=0;exitDy=0;entryX=0;entryY=0.5;entryDx=0;entryDy=0;fontSize=17;" edge="1" parent="1" source="zVydbtwMKr3rRIUxapGz-37" target="zVydbtwMKr3rRIUxapGz-21">
          <mxGeometry relative="1" as="geometry" />
        </mxCell>
        <mxCell id="zVydbtwMKr3rRIUxapGz-37" value="调整参数" style="rounded=0;whiteSpace=wrap;html=1;fontSize=17;" vertex="1" parent="1">
          <mxGeometry x="230" y="680" width="105" height="30" as="geometry" />
        </mxCell>
        <mxCell id="zVydbtwMKr3rRIUxapGz-42" style="edgeStyle=orthogonalEdgeStyle;rounded=0;orthogonalLoop=1;jettySize=auto;html=1;exitX=0.5;exitY=1;exitDx=0;exitDy=0;fontSize=17;" edge="1" parent="1" source="zVydbtwMKr3rRIUxapGz-22" target="zVydbtwMKr3rRIUxapGz-25">
          <mxGeometry relative="1" as="geometry" />
        </mxCell>
        <mxCell id="zVydbtwMKr3rRIUxapGz-44" style="edgeStyle=orthogonalEdgeStyle;rounded=0;orthogonalLoop=1;jettySize=auto;html=1;exitX=0.5;exitY=0;exitDx=0;exitDy=0;entryX=1;entryY=0.5;entryDx=0;entryDy=0;fontSize=17;" edge="1" parent="1" source="zVydbtwMKr3rRIUxapGz-43" target="zVydbtwMKr3rRIUxapGz-20">
          <mxGeometry relative="1" as="geometry" />
        </mxCell>
        <mxCell id="zVydbtwMKr3rRIUxapGz-43" value="改变模型厚度" style="rounded=0;whiteSpace=wrap;html=1;fontSize=17;" vertex="1" parent="1">
          <mxGeometry x="480" y="660" width="130" height="30" as="geometry" />
        </mxCell>
        <mxCell id="zVydbtwMKr3rRIUxapGz-55" value="" style="endArrow=classic;html=1;rounded=0;entryX=0.5;entryY=0;entryDx=0;entryDy=0;exitX=0.5;exitY=1;exitDx=0;exitDy=0;fontSize=17;" edge="1" parent="1" source="zVydbtwMKr3rRIUxapGz-25" target="zVydbtwMKr3rRIUxapGz-24">
          <mxGeometry relative="1" as="geometry">
            <mxPoint x="405" y="840" as="sourcePoint" />
            <mxPoint x="545" y="810" as="targetPoint" />
          </mxGeometry>
        </mxCell>
        <mxCell id="zVydbtwMKr3rRIUxapGz-56" value="是" style="edgeLabel;resizable=0;html=1;align=center;verticalAlign=middle;fontSize=17;" connectable="0" vertex="1" parent="zVydbtwMKr3rRIUxapGz-55">
          <mxGeometry relative="1" as="geometry" />
        </mxCell>
        <mxCell id="zVydbtwMKr3rRIUxapGz-57" value="" style="endArrow=classic;html=1;rounded=0;entryX=0.5;entryY=1;entryDx=0;entryDy=0;exitX=0;exitY=0.5;exitDx=0;exitDy=0;fontSize=17;" edge="1" parent="1" source="zVydbtwMKr3rRIUxapGz-25" target="zVydbtwMKr3rRIUxapGz-37">
          <mxGeometry relative="1" as="geometry">
            <mxPoint x="415" y="850" as="sourcePoint" />
            <mxPoint x="415" y="890" as="targetPoint" />
            <Array as="points">
              <mxPoint x="280" y="820" />
            </Array>
          </mxGeometry>
        </mxCell>
        <mxCell id="zVydbtwMKr3rRIUxapGz-58" value="否" style="edgeLabel;resizable=0;html=1;align=center;verticalAlign=middle;fontSize=17;" connectable="0" vertex="1" parent="zVydbtwMKr3rRIUxapGz-57">
          <mxGeometry relative="1" as="geometry" />
        </mxCell>
        <mxCell id="zVydbtwMKr3rRIUxapGz-61" value="" style="swimlane;startSize=0;fontSize=17;" vertex="1" parent="1">
          <mxGeometry x="615" y="580" width="200" height="260" as="geometry">
            <mxRectangle x="620" y="550" width="50" height="40" as="alternateBounds" />
          </mxGeometry>
        </mxCell>
        <mxCell id="zVydbtwMKr3rRIUxapGz-13" value="建立组合体" style="rounded=0;whiteSpace=wrap;html=1;fontSize=17;" vertex="1" parent="zVydbtwMKr3rRIUxapGz-61">
          <mxGeometry x="40" y="30" width="120" height="30" as="geometry" />
        </mxCell>
        <mxCell id="zVydbtwMKr3rRIUxapGz-14" value="剖分网格" style="rounded=0;whiteSpace=wrap;html=1;fontSize=17;" vertex="1" parent="zVydbtwMKr3rRIUxapGz-61">
          <mxGeometry x="40" y="110" width="120" height="30" as="geometry" />
        </mxCell>
        <mxCell id="zVydbtwMKr3rRIUxapGz-59" style="edgeStyle=orthogonalEdgeStyle;rounded=0;orthogonalLoop=1;jettySize=auto;html=1;exitX=0.5;exitY=1;exitDx=0;exitDy=0;entryX=0.5;entryY=0;entryDx=0;entryDy=0;fontSize=17;" edge="1" parent="zVydbtwMKr3rRIUxapGz-61" source="zVydbtwMKr3rRIUxapGz-13" target="zVydbtwMKr3rRIUxapGz-14">
          <mxGeometry relative="1" as="geometry" />
        </mxCell>
        <mxCell id="zVydbtwMKr3rRIUxapGz-15" value="设置边界条件和激励源" style="rounded=0;whiteSpace=wrap;html=1;fontSize=17;" vertex="1" parent="zVydbtwMKr3rRIUxapGz-61">
          <mxGeometry x="40" y="180" width="120" height="50" as="geometry" />
        </mxCell>
        <mxCell id="zVydbtwMKr3rRIUxapGz-60" style="edgeStyle=orthogonalEdgeStyle;rounded=0;orthogonalLoop=1;jettySize=auto;html=1;exitX=0.5;exitY=1;exitDx=0;exitDy=0;entryX=0.5;entryY=0;entryDx=0;entryDy=0;fontSize=17;" edge="1" parent="zVydbtwMKr3rRIUxapGz-61" source="zVydbtwMKr3rRIUxapGz-14" target="zVydbtwMKr3rRIUxapGz-15">
          <mxGeometry relative="1" as="geometry" />
        </mxCell>
        <mxCell id="zVydbtwMKr3rRIUxapGz-63" value="建立组合体" style="rounded=0;whiteSpace=wrap;html=1;fontSize=17;" vertex="1" parent="zVydbtwMKr3rRIUxapGz-61">
          <mxGeometry x="40" y="30" width="120" height="30" as="geometry" />
        </mxCell>
        <mxCell id="zVydbtwMKr3rRIUxapGz-64" value="建立组合体" style="rounded=0;whiteSpace=wrap;html=1;fontSize=17;" vertex="1" parent="zVydbtwMKr3rRIUxapGz-61">
          <mxGeometry x="40" y="30" width="120" height="30" as="geometry" />
        </mxCell>
        <mxCell id="zVydbtwMKr3rRIUxapGz-65" value="建立组合体" style="rounded=0;whiteSpace=wrap;html=1;fontSize=17;" vertex="1" parent="zVydbtwMKr3rRIUxapGz-61">
          <mxGeometry x="40" y="30" width="120" height="30" as="geometry" />
        </mxCell>
        <mxCell id="zVydbtwMKr3rRIUxapGz-66" value="设置边界条件和激励源" style="rounded=0;whiteSpace=wrap;html=1;fontSize=17;" vertex="1" parent="zVydbtwMKr3rRIUxapGz-61">
          <mxGeometry x="40" y="180" width="120" height="50" as="geometry" />
        </mxCell>
        <mxCell id="zVydbtwMKr3rRIUxapGz-62" value="" style="endArrow=none;html=1;rounded=0;entryX=0.5;entryY=0;entryDx=0;entryDy=0;exitX=1;exitY=0.5;exitDx=0;exitDy=0;fontSize=17;" edge="1" parent="1" source="zVydbtwMKr3rRIUxapGz-19" target="zVydbtwMKr3rRIUxapGz-61">
          <mxGeometry width="50" height="50" relative="1" as="geometry">
            <mxPoint x="570" y="740" as="sourcePoint" />
            <mxPoint x="620" y="690" as="targetPoint" />
            <Array as="points">
              <mxPoint x="715" y="515" />
            </Array>
          </mxGeometry>
        </mxCell>
      </root>
    </mxGraphModel>
  </diagram>
</mxfile>
